<?xml version="1.0" encoding="UTF-8"?>
<svg xmlns="http://www.w3.org/2000/svg" viewBox="0 0 1600 560" width="1600" height="560" preserveAspectRatio="xMidYMid slice" shape-rendering="crispEdges" role="img" aria-label="low-poly banner">
<path fill="#477fae" d="M0 0L62 0L48 53Z"/>
<path fill="#5c94c9" d="M0 0L48 53L0 76Z"/>
<path fill="#29598a" d="M62 0L147 0L48 53Z"/>
<path fill="#214973" d="M147 0L140 58L48 53Z"/>
<path fill="#192036" d="M147 0L206 0L189 70Z"/>
<path fill="#1d2a52" d="M147 0L189 70L140 58Z"/>
<path fill="#1c132f" d="M206 0L261 0L189 70Z"/>
<path fill="#191538" d="M261 0L278 65L189 70Z"/>
<path fill="#0d233b" d="M261 0L326 0L347 57Z"/>
<path fill="#0c1837" d="M261 0L347 57L278 65Z"/>
<path fill="#132130" d="M326 0L400 0L347 57Z"/>
<path fill="#1b1f2f" d="M400 0L415 55L347 57Z"/>
<path fill="#1c192e" d="M400 0L467 0L481 59Z"/>
<path fill="#121e3c" d="M400 0L481 59L415 55Z"/>
<path fill="#152037" d="M467 0L522 0L481 59Z"/>
<path fill="#1a202d" d="M522 0L549 78L481 59Z"/>
<path fill="#0c212d" d="M522 0L599 0L617 46Z"/>
<path fill="#16152e" d="M522 0L617 46L549 78Z"/>
<path fill="#13192d" d="M599 0L663 0L617 46Z"/>
<path fill="#212146" d="M663 0L660 57L617 46Z"/>
<path fill="#3d5b93" d="M663 0L733 0L739 49Z"/>
<path fill="#29427d" d="M663 0L739 49L660 57Z"/>
<path fill="#5c85c2" d="M733 0L811 0L739 49Z"/>
<path fill="#6a96d7" d="M811 0L796 64L739 49Z"/>
<path fill="#a4cbef" d="M811 0L852 0L858 60Z"/>
<path fill="#8fc2ed" d="M811 0L858 60L796 64Z"/>
<path fill="#adcee6" d="M852 0L926 0L858 60Z"/>
<path fill="#a8c8ee" d="M926 0L937 57L858 60Z"/>
<path fill="#b3d8e6" d="M926 0L1015 0L1010 67Z"/>
<path fill="#b3cfe7" d="M926 0L1010 67L937 57Z"/>
<path fill="#aed2f5" d="M1015 0L1057 0L1010 67Z"/>
<path fill="#a4c6e6" d="M1057 0L1055 79L1010 67Z"/>
<path fill="#579dcb" d="M1057 0L1145 0L1117 62Z"/>
<path fill="#81abde" d="M1057 0L1117 62L1055 79Z"/>
<path fill="#4271a6" d="M1145 0L1188 0L1117 62Z"/>
<path fill="#3c5688" d="M1188 0L1208 53L1117 62Z"/>
<path fill="#1f1c3f" d="M1188 0L1266 0L1264 47Z"/>
<path fill="#19365f" d="M1188 0L1264 47L1208 53Z"/>
<path fill="#122139" d="M1266 0L1351 0L1264 47Z"/>
<path fill="#101136" d="M1351 0L1329 52L1264 47Z"/>
<path fill="#161939" d="M1351 0L1395 0L1392 50Z"/>
<path fill="#1b1e30" d="M1351 0L1392 50L1329 52Z"/>
<path fill="#16173b" d="M1395 0L1478 0L1392 50Z"/>
<path fill="#10183a" d="M1478 0L1471 69L1392 50Z"/>
<path fill="#1b1a31" d="M1478 0L1538 0L1550 68Z"/>
<path fill="#0e1736" d="M1478 0L1550 68L1471 69Z"/>
<path fill="#1a163c" d="M1538 0L1600 0L1550 68Z"/>
<path fill="#1d2030" d="M1600 0L1600 67L1550 68Z"/>
<path fill="#658cc6" d="M0 76L48 53L0 135Z"/>
<path fill="#5589c6" d="M48 53L49 136L0 135Z"/>
<path fill="#325693" d="M48 53L140 58L145 137Z"/>
<path fill="#5182b4" d="M48 53L145 137L49 136Z"/>
<path fill="#2e4272" d="M140 58L189 70L145 137Z"/>
<path fill="#264c82" d="M189 70L186 110L145 137Z"/>
<path fill="#122237" d="M189 70L278 65L284 136Z"/>
<path fill="#1e3155" d="M189 70L284 136L186 110Z"/>
<path fill="#0e1a36" d="M278 65L347 57L284 136Z"/>
<path fill="#1a1c36" d="M347 57L340 120L284 136Z"/>
<path fill="#191e34" d="M347 57L415 55L391 110Z"/>
<path fill="#0f1132" d="M347 57L391 110L340 120Z"/>
<path fill="#141736" d="M415 55L481 59L391 110Z"/>
<path fill="#0d1439" d="M481 59L461 134L391 110Z"/>
<path fill="#0d1239" d="M481 59L549 78L547 124Z"/>
<path fill="#171339" d="M481 59L547 124L461 134Z"/>
<path fill="#0d1c3a" d="M549 78L617 46L547 124Z"/>
<path fill="#17193e" d="M617 46L594 123L547 124Z"/>
<path fill="#1e3152" d="M617 46L660 57L664 113Z"/>
<path fill="#22284c" d="M617 46L664 113L594 123Z"/>
<path fill="#285382" d="M660 57L739 49L664 113Z"/>
<path fill="#356796" d="M739 49L723 117L664 113Z"/>
<path fill="#5c9ed4" d="M739 49L796 64L814 123Z"/>
<path fill="#487cb7" d="M739 49L814 123L723 117Z"/>
<path fill="#8ab9d6" d="M796 64L858 60L814 123Z"/>
<path fill="#88b5dd" d="M858 60L853 109L814 123Z"/>
<path fill="#b1d3f6" d="M858 60L937 57L920 113Z"/>
<path fill="#a0c3ef" d="M858 60L920 113L853 109Z"/>
<path fill="#b2d5e6" d="M937 57L1010 67L920 113Z"/>
<path fill="#a5cbef" d="M1010 67L982 111L920 113Z"/>
<path fill="#8bbbd8" d="M1010 67L1055 79L1059 114Z"/>
<path fill="#95bfe0" d="M1010 67L1059 114L982 111Z"/>
<path fill="#759bcb" d="M1055 79L1117 62L1059 114Z"/>
<path fill="#4d85c0" d="M1117 62L1135 127L1059 114Z"/>
<path fill="#355391" d="M1117 62L1208 53L1192 135ZM1050 437L1142 451L1075 513Z"/>
<path fill="#3d67a4" d="M1117 62L1192 135L1135 127Z"/>
<path fill="#273168" d="M1208 53L1264 47L1192 135Z"/>
<path fill="#192a55" d="M1264 47L1260 137L1192 135Z"/>
<path fill="#10152e" d="M1264 47L1329 52L1333 107Z"/>
<path fill="#151838" d="M1264 47L1333 107L1260 137Z"/>
<path fill="#0f1d33" d="M1329 52L1392 50L1333 107Z"/>
<path fill="#0d1732" d="M1392 50L1409 121L1333 107Z"/>
<path fill="#13153c" d="M1392 50L1471 69L1452 135Z"/>
<path fill="#171e2f" d="M1392 50L1452 135L1409 121Z"/>
<path fill="#0f1236" d="M1471 69L1550 68L1452 135Z"/>
<path fill="#0e1438" d="M1550 68L1542 126L1452 135Z"/>
<path fill="#111b31" d="M1550 68L1600 67L1600 113Z"/>
<path fill="#13222f" d="M1550 68L1600 113L1542 126Z"/>
<path fill="#649ed0" d="M0 135L49 136L66 173Z"/>
<path fill="#6692c9" d="M0 135L66 173L0 185Z"/>
<path fill="#5b87c0" d="M49 136L145 137L66 173Z"/>
<path fill="#4e86cb" d="M145 137L123 197L66 173Z"/>
<path fill="#3c5f99" d="M145 137L186 110L216 172Z"/>
<path fill="#427fb0" d="M145 137L216 172L123 197Z"/>
<path fill="#2f5381" d="M186 110L284 136L216 172Z"/>
<path fill="#2a6195" d="M284 136L276 201L216 172Z"/>
<path fill="#1e3756" d="M284 136L340 120L315 177Z"/>
<path fill="#31508b" d="M284 136L315 177L276 201Z"/>
<path fill="#13283e" d="M340 120L391 110L315 177Z"/>
<path fill="#1e264b" d="M391 110L392 174L315 177Z"/>
<path fill="#101c33" d="M391 110L461 134L456 184Z"/>
<path fill="#242d47" d="M391 110L456 184L392 174Z"/>
<path fill="#12283e" d="M461 134L547 124L456 184Z"/>
<path fill="#1e264d" d="M547 124L541 173L456 184Z"/>
<path fill="#1a3550" d="M547 124L594 123L598 192Z"/>
<path fill="#203a5c" d="M547 124L598 192L541 173Z"/>
<path fill="#293670" d="M594 123L664 113L598 192Z"/>
<path fill="#284f7c" d="M664 113L668 203L598 192Z"/>
<path fill="#3d5a9c" d="M664 113L723 117L719 181Z"/>
<path fill="#365989" d="M664 113L719 181L668 203Z"/>
<path fill="#3e75b3" d="M723 117L814 123L719 181Z"/>
<path fill="#528cc1" d="M814 123L817 190L719 181Z"/>
<path fill="#79a4ce" d="M814 123L853 109L880 185Z"/>
<path fill="#5a8dc6" d="M814 123L880 185L817 190Z"/>
<path fill="#83a7d7" d="M853 109L920 113L880 185Z"/>
<path fill="#779fd2" d="M920 113L941 173L880 185Z"/>
<path fill="#8cb0de" d="M920 113L982 111L998 172Z"/>
<path fill="#7baedb" d="M920 113L998 172L941 173Z"/>
<path fill="#7ea4d9" d="M982 111L1059 114L998 172Z"/>
<path fill="#578fcc" d="M1059 114L1069 174L998 172Z"/>
<path fill="#4175b0" d="M1059 114L1135 127L1128 199Z"/>
<path fill="#4681b1" d="M1059 114L1128 199L1069 174Z"/>
<path fill="#346599" d="M1135 127L1192 135L1128 199Z"/>
<path fill="#2b5583" d="M1192 135L1213 185L1128 199Z"/>
<path fill="#253265" d="M1192 135L1260 137L1282 176Z"/>
<path fill="#264575" d="M1192 135L1282 176L1213 185Z"/>
<path fill="#212544" d="M1260 137L1333 107L1282 176Z"/>
<path fill="#16273e" d="M1333 107L1343 182L1282 176Z"/>
<path fill="#1c113c" d="M1333 107L1409 121L1399 193Z"/>
<path fill="#1d153f" d="M1333 107L1399 193L1343 182Z"/>
<path fill="#121138" d="M1409 121L1452 135L1399 193Z"/>
<path fill="#1a2735" d="M1452 135L1485 180L1399 193Z"/>
<path fill="#17122b" d="M1452 135L1542 126L1548 178Z"/>
<path fill="#1c1c3e" d="M1452 135L1548 178L1485 180Z"/>
<path fill="#1b123c" d="M1542 126L1600 113L1548 178Z"/>
<path fill="#173055" d="M1600 113L1600 197L1548 178Z"/>
<path fill="#5e8ac9" d="M0 185L66 173L0 249Z"/>
<path fill="#5e90c9" d="M66 173L55 258L0 249Z"/>
<path fill="#598fc5" d="M66 173L123 197L125 262Z"/>
<path fill="#5598c0" d="M66 173L125 262L55 258Z"/>
<path fill="#5f8ccd" d="M123 197L216 172L125 262Z"/>
<path fill="#6093c7" d="M216 172L201 264L125 262Z"/>
<path fill="#4d77aa" d="M216 172L276 201L283 265Z"/>
<path fill="#4b85bf" d="M216 172L283 265L201 264Z"/>
<path fill="#3d65a7" d="M276 201L315 177L283 265Z"/>
<path fill="#4773a6" d="M315 177L351 234L283 265Z"/>
<path fill="#2e4a82" d="M315 177L392 174L411 235Z"/>
<path fill="#35609a" d="M315 177L411 235L351 234Z"/>
<path fill="#2a4876" d="M392 174L456 184L411 235Z"/>
<path fill="#3a5887" d="M456 184L462 263L411 235Z"/>
<path fill="#2e4c80" d="M456 184L541 173L551 254Z"/>
<path fill="#2a4f91" d="M456 184L551 254L462 263Z"/>
<path fill="#254f7a" d="M541 173L598 192L551 254Z"/>
<path fill="#2e538b" d="M598 192L605 250L551 254Z"/>
<path fill="#355d9a" d="M598 192L668 203L670 240Z"/>
<path fill="#335a98" d="M598 192L670 240L605 250Z"/>
<path fill="#4263a3" d="M668 203L719 181L670 240Z"/>
<path fill="#3d71b3" d="M719 181L738 259L670 240Z"/>
<path fill="#557eb2" d="M719 181L817 190L798 242Z"/>
<path fill="#427ab7" d="M719 181L798 242L738 259Z"/>
<path fill="#5d91c9" d="M817 190L880 185L798 242Z"/>
<path fill="#528cbe" d="M880 185L883 257L798 242Z"/>
<path fill="#659cc4" d="M880 185L941 173L932 240Z"/>
<path fill="#5e90c4" d="M880 185L932 240L883 257Z"/>
<path fill="#638dc2" d="M941 173L998 172L932 240Z"/>
<path fill="#5b94bc" d="M998 172L994 238L932 240Z"/>
<path fill="#548bbd" d="M998 172L1069 174L1066 233Z"/>
<path fill="#4c8bc0" d="M998 172L1066 233L994 238Z"/>
<path fill="#4476b4" d="M1069 174L1128 199L1066 233Z"/>
<path fill="#3e66aa" d="M1128 199L1142 241L1066 233Z"/>
<path fill="#355d87" d="M1128 199L1213 185L1206 241Z"/>
<path fill="#3b69a1" d="M1128 199L1206 241L1142 241Z"/>
<path fill="#2c4371" d="M1213 185L1282 176L1206 241Z"/>
<path fill="#254b83" d="M1282 176L1249 240L1206 241Z"/>
<path fill="#1c3962" d="M1282 176L1343 182L1324 252Z"/>
<path fill="#25497b" d="M1282 176L1324 252L1249 240Z"/>
<path fill="#1a335b" d="M1343 182L1399 193L1324 252Z"/>
<path fill="#244271" d="M1399 193L1413 237L1324 252Z"/>
<path fill="#1a3b68" d="M1399 193L1485 180L1455 262Z"/>
<path fill="#2a4365" d="M1399 193L1455 262L1413 237Z"/>
<path fill="#1c3565" d="M1485 180L1548 178L1455 262Z"/>
<path fill="#263e80" d="M1548 178L1549 260L1455 262Z"/>
<path fill="#255176" d="M1548 178L1600 197L1600 242Z"/>
<path fill="#2a5383" d="M1548 178L1600 242L1549 260Z"/>
<path fill="#4783bb" d="M0 249L55 258L57 312Z"/>
<path fill="#466da6" d="M0 249L57 312L0 305Z"/>
<path fill="#4f85bd" d="M55 258L125 262L57 312Z"/>
<path fill="#5378b9" d="M125 262L118 296L57 312Z"/>
<path fill="#588bc5" d="M125 262L201 264L190 327Z"/>
<path fill="#557abd" d="M125 262L190 327L118 296Z"/>
<path fill="#4d78c0" d="M201 264L283 265L190 327Z"/>
<path fill="#4371b2" d="M283 265L249 326L190 327Z"/>
<path fill="#3b72ab" d="M283 265L351 234L350 319Z"/>
<path fill="#3a78a9" d="M283 265L350 319L249 326Z"/>
<path fill="#4570a0" d="M351 234L411 235L350 319Z"/>
<path fill="#436d9b" d="M411 235L412 297L350 319Z"/>
<path fill="#376a96" d="M411 235L462 263L479 311Z"/>
<path fill="#4269a6" d="M411 235L479 311L412 297Z"/>
<path fill="#3f5ba3" d="M462 263L551 254L479 311Z"/>
<path fill="#43649b" d="M551 254L543 325L479 311Z"/>
<path fill="#336099" d="M551 254L605 250L605 324Z"/>
<path fill="#35689c" d="M551 254L605 324L543 325Z"/>
<path fill="#3e74ae" d="M605 250L670 240L605 324Z"/>
<path fill="#3f74a6" d="M670 240L676 316L605 324Z"/>
<path fill="#4277b5" d="M670 240L738 259L726 297Z"/>
<path fill="#4b78ae" d="M670 240L726 297L676 316Z"/>
<path fill="#5780c4" d="M738 259L798 242L726 297Z"/>
<path fill="#5e95c8" d="M798 242L814 325L726 297Z"/>
<path fill="#589bc5" d="M798 242L883 257L878 299Z"/>
<path fill="#598bcd" d="M798 242L878 299L814 325Z"/>
<path fill="#5b8fd1" d="M883 257L932 240L878 299Z"/>
<path fill="#629ac1" d="M932 240L927 318L878 299Z"/>
<path fill="#548bc8" d="M932 240L994 238L990 307Z"/>
<path fill="#598bc0" d="M932 240L990 307L927 318Z"/>
<path fill="#5482bd" d="M994 238L1066 233L990 307Z"/>
<path fill="#5189c3" d="M1066 233L1083 313L990 307Z"/>
<path fill="#4578a1" d="M1066 233L1142 241L1150 297Z"/>
<path fill="#5081b1" d="M1066 233L1150 297L1083 313Z"/>
<path fill="#416e99" d="M1142 241L1206 241L1150 297Z"/>
<path fill="#3b679f" d="M1206 241L1200 296L1150 297Z"/>
<path fill="#3a5b96" d="M1206 241L1249 240L1276 328Z"/>
<path fill="#366191" d="M1206 241L1276 328L1200 296Z"/>
<path fill="#344f82" d="M1249 240L1324 252L1276 328Z"/>
<path fill="#344b89" d="M1324 252L1339 323L1276 328Z"/>
<path fill="#2a4477" d="M1324 252L1413 237L1416 325Z"/>
<path fill="#2e5489" d="M1324 252L1416 325L1339 323Z"/>
<path fill="#234e75" d="M1413 237L1455 262L1416 325Z"/>
<path fill="#334879" d="M1455 262L1451 304L1416 325Z"/>
<path fill="#315688" d="M1455 262L1549 260L1546 308Z"/>
<path fill="#294f77" d="M1455 262L1546 308L1451 304Z"/>
<path fill="#355489" d="M1549 260L1600 242L1546 308Z"/>
<path fill="#30567e" d="M1600 242L1600 325L1546 308Z"/>
<path fill="#385e95" d="M0 305L57 312L0 368Z"/>
<path fill="#395c88" d="M57 312L58 382L0 368Z"/>
<path fill="#386c9b" d="M57 312L118 296L143 389Z"/>
<path fill="#345a8b" d="M57 312L143 389L58 382Z"/>
<path fill="#3367a4" d="M118 296L190 327L143 389Z"/>
<path fill="#295283" d="M190 327L195 383L143 389Z"/>
<path fill="#305c97" d="M190 327L249 326L264 388Z"/>
<path fill="#325b91" d="M190 327L264 388L195 383Z"/>
<path fill="#2f5993" d="M249 326L350 319L264 388Z"/>
<path fill="#2d5688" d="M350 319L325 376L264 388Z"/>
<path fill="#355d95" d="M350 319L412 297L395 386Z"/>
<path fill="#2b538e" d="M350 319L395 386L325 376Z"/>
<path fill="#345992" d="M412 297L479 311L395 386Z"/>
<path fill="#2e508f" d="M479 311L480 389L395 386Z"/>
<path fill="#335697" d="M479 311L543 325L516 384Z"/>
<path fill="#305293" d="M479 311L516 384L480 389Z"/>
<path fill="#32658e" d="M543 325L605 324L516 384Z"/>
<path fill="#3d5b96" d="M605 324L585 361L516 384Z"/>
<path fill="#4668ad" d="M605 324L676 316L680 375Z"/>
<path fill="#3d5d9c" d="M605 324L680 375L585 361Z"/>
<path fill="#4376b1" d="M676 316L726 297L680 375Z"/>
<path fill="#496ba6" d="M726 297L743 382L680 375Z"/>
<path fill="#5083c3" d="M726 297L814 325L806 366Z"/>
<path fill="#4383bd" d="M726 297L806 366L743 382Z"/>
<path fill="#518dbf" d="M814 325L878 299L806 366Z"/>
<path fill="#528fc3" d="M878 299L866 379L806 366Z"/>
<path fill="#5a8fc4" d="M878 299L927 318L929 365Z"/>
<path fill="#5693b9" d="M878 299L929 365L866 379Z"/>
<path fill="#5d95c8" d="M927 318L990 307L929 365Z"/>
<path fill="#5c8ec7" d="M990 307L993 384L929 365Z"/>
<path fill="#548cbd" d="M990 307L1083 313L1072 359Z"/>
<path fill="#5781bd" d="M990 307L1072 359L993 384Z"/>
<path fill="#5085b1" d="M1083 313L1150 297L1072 359Z"/>
<path fill="#5180b8" d="M1150 297L1142 378L1072 359Z"/>
<path fill="#3a6bab" d="M1150 297L1200 296L1189 362Z"/>
<path fill="#3e74b6" d="M1150 297L1189 362L1142 378Z"/>
<path fill="#3a6ca9" d="M1200 296L1276 328L1189 362Z"/>
<path fill="#36629b" d="M1276 328L1282 376L1189 362Z"/>
<path fill="#384f91" d="M1276 328L1339 323L1334 381Z"/>
<path fill="#3a5495" d="M1276 328L1334 381L1282 376Z"/>
<path fill="#334e88" d="M1339 323L1416 325L1334 381Z"/>
<path fill="#314c7c" d="M1416 325L1417 373L1334 381Z"/>
<path fill="#304d7c" d="M1416 325L1451 304L1475 373Z"/>
<path fill="#224c75" d="M1416 325L1475 373L1417 373Z"/>
<path fill="#31477e" d="M1451 304L1546 308L1475 373Z"/>
<path fill="#263e65" d="M1546 308L1550 379L1475 373Z"/>
<path fill="#284774" d="M1546 308L1600 325L1600 385Z"/>
<path fill="#2a3368" d="M1546 308L1600 385L1550 379Z"/>
<path fill="#2d4779" d="M0 368L58 382L82 421Z"/>
<path fill="#28346a" d="M0 368L82 421L0 435Z"/>
<path fill="#25457c" d="M58 382L143 389L82 421Z"/>
<path fill="#22306c" d="M143 389L139 444L82 421Z"/>
<path fill="#24376c" d="M143 389L195 383L192 447Z"/>
<path fill="#273963" d="M143 389L192 447L139 444Z"/>
<path fill="#254077" d="M195 383L264 388L192 447Z"/>
<path fill="#223872" d="M264 388L268 437L192 447Z"/>
<path fill="#243f7d" d="M264 388L325 376L337 453Z"/>
<path fill="#283867" d="M264 388L337 453L268 437Z"/>
<path fill="#304c6f" d="M325 376L395 386L337 453Z"/>
<path fill="#274570" d="M395 386L410 427L337 453Z"/>
<path fill="#2e5185" d="M395 386L480 389L454 420Z"/>
<path fill="#244c74" d="M395 386L454 420L410 427Z"/>
<path fill="#285587" d="M480 389L516 384L454 420Z"/>
<path fill="#2c4f80" d="M516 384L524 437L454 420Z"/>
<path fill="#2e5c8f" d="M516 384L585 361L587 433Z"/>
<path fill="#294c89" d="M516 384L587 433L524 437Z"/>
<path fill="#325a92" d="M585 361L680 375L587 433Z"/>
<path fill="#3d5995" d="M680 375L660 429L587 433Z"/>
<path fill="#406a9f" d="M680 375L743 382L745 428Z"/>
<path fill="#3c6199" d="M680 375L745 428L660 429Z"/>
<path fill="#4667af" d="M743 382L806 366L745 428Z"/>
<path fill="#3b67a8" d="M806 366L789 441L745 428Z"/>
<path fill="#3f75b5" d="M806 366L866 379L874 450Z"/>
<path fill="#406cac" d="M806 366L874 450L789 441Z"/>
<path fill="#4b7ab0" d="M866 379L929 365L874 450Z"/>
<path fill="#4174b2" d="M929 365L917 432L874 450Z"/>
<path fill="#5080b9" d="M929 365L993 384L985 438Z"/>
<path fill="#4480ad" d="M929 365L985 438L917 432Z"/>
<path fill="#507fb7" d="M993 384L1072 359L985 438Z"/>
<path fill="#4b75a9" d="M1072 359L1050 437L985 438Z"/>
<path fill="#4479ad" d="M1072 359L1142 378L1142 451Z"/>
<path fill="#3f70ae" d="M1072 359L1142 451L1050 437Z"/>
<path fill="#406bb2" d="M1142 378L1189 362L1142 451Z"/>
<path fill="#3f74a3" d="M1189 362L1206 437L1142 451Z"/>
<path fill="#345da1" d="M1189 362L1282 376L1265 429Z"/>
<path fill="#356fa1" d="M1189 362L1265 429L1206 437Z"/>
<path fill="#31649a" d="M1282 376L1334 381L1265 429Z"/>
<path fill="#355990" d="M1334 381L1321 437L1265 429Z"/>
<path fill="#2c4d76" d="M1334 381L1417 373L1410 426Z"/>
<path fill="#31567e" d="M1334 381L1410 426L1321 437Z"/>
<path fill="#28396f" d="M1417 373L1475 373L1410 426Z"/>
<path fill="#21376c" d="M1475 373L1473 435L1410 426Z"/>
<path fill="#1c3d60" d="M1475 373L1550 379L1522 419Z"/>
<path fill="#2b3c5a" d="M1475 373L1522 419L1473 435Z"/>
<path fill="#1d3550" d="M1550 379L1600 385L1522 419Z"/>
<path fill="#243159" d="M1600 385L1600 419L1522 419Z"/>
<path fill="#1c1e4f" d="M0 435L82 421L0 497Z"/>
<path fill="#0d183c" d="M82 421L54 501L0 497Z"/>
<path fill="#182f55" d="M82 421L139 444L126 498Z"/>
<path fill="#20273e" d="M82 421L126 498L54 501Z"/>
<path fill="#24284f" d="M139 444L192 447L126 498Z"/>
<path fill="#15204b" d="M192 447L203 513L126 498Z"/>
<path fill="#222e64" d="M192 447L268 437L256 490Z"/>
<path fill="#182a5c" d="M192 447L256 490L203 513Z"/>
<path fill="#29316b" d="M268 437L337 453L256 490Z"/>
<path fill="#2d4573" d="M337 453L327 499L256 490Z"/>
<path fill="#2f4179" d="M337 453L410 427L390 493Z"/>
<path fill="#304b75" d="M337 453L390 493L327 499Z"/>
<path fill="#254f78" d="M410 427L454 420L390 493Z"/>
<path fill="#274885" d="M454 420L463 484L390 493Z"/>
<path fill="#2f4581" d="M454 420L524 437L531 500Z"/>
<path fill="#27507c" d="M454 420L531 500L463 484Z"/>
<path fill="#2f4f8c" d="M524 437L587 433L531 500Z"/>
<path fill="#285185" d="M587 433L616 502L531 500Z"/>
<path fill="#395391" d="M587 433L660 429L658 499Z"/>
<path fill="#2a547f" d="M587 433L658 499L616 502Z"/>
<path fill="#2c528f" d="M660 429L745 428L658 499Z"/>
<path fill="#264977" d="M745 428L744 510L658 499Z"/>
<path fill="#2f558a" d="M745 428L789 441L795 509Z"/>
<path fill="#273e75" d="M745 428L795 509L744 510Z"/>
<path fill="#2b5289" d="M789 441L874 450L795 509Z"/>
<path fill="#2c416f" d="M874 450L874 513L795 509Z"/>
<path fill="#2e5490" d="M874 450L917 432L949 494Z"/>
<path fill="#283b6a" d="M874 450L949 494L874 513Z"/>
<path fill="#3b5a9b" d="M917 432L985 438L949 494Z"/>
<path fill="#344686" d="M985 438L983 494L949 494Z"/>
<path fill="#2c5c86" d="M985 438L1050 437L1075 513Z"/>
<path fill="#2d487e" d="M985 438L1075 513L983 494Z"/>
<path fill="#294f87" d="M1142 451L1150 491L1075 513Z"/>
<path fill="#3c5c9b" d="M1142 451L1206 437L1215 508Z"/>
<path fill="#324c8a" d="M1142 451L1215 508L1150 491Z"/>
<path fill="#376890" d="M1206 437L1265 429L1215 508Z"/>
<path fill="#2b5891" d="M1265 429L1262 496L1215 508Z"/>
<path fill="#3b518d" d="M1265 429L1321 437L1328 491Z"/>
<path fill="#315c96" d="M1265 429L1328 491L1262 496Z"/>
<path fill="#2f4c82" d="M1321 437L1410 426L1328 491Z"/>
<path fill="#30568f" d="M1410 426L1396 512L1328 491Z"/>
<path fill="#204776" d="M1410 426L1473 435L1462 512Z"/>
<path fill="#345383" d="M1410 426L1462 512L1396 512Z"/>
<path fill="#2a3e68" d="M1473 435L1522 419L1462 512Z"/>
<path fill="#28376f" d="M1522 419L1545 510L1462 512Z"/>
<path fill="#1e2e4b" d="M1522 419L1600 419L1600 481Z"/>
<path fill="#1d284e" d="M1522 419L1600 481L1545 510Z"/>
<path fill="#181439" d="M0 497L54 501L74 560Z"/>
<path fill="#101432" d="M0 497L74 560L0 560Z"/>
<path fill="#1b2233" d="M54 501L126 498L74 560Z"/>
<path fill="#171b42" d="M126 498L137 560L74 560Z"/>
<path fill="#192156" d="M126 498L203 513L194 560Z"/>
<path fill="#1c294c" d="M126 498L194 560L137 560Z"/>
<path fill="#27355d" d="M203 513L256 490L194 560Z"/>
<path fill="#2d4879" d="M256 490L266 560L194 560Z"/>
<path fill="#344b80" d="M256 490L327 499L337 560Z"/>
<path fill="#344d7c" d="M256 490L337 560L266 560Z"/>
<path fill="#354d8e" d="M327 499L390 493L337 560Z"/>
<path fill="#35699f" d="M390 493L401 560L337 560Z"/>
<path fill="#3a5e96" d="M390 493L463 484L468 560Z"/>
<path fill="#3d62a9" d="M390 493L468 560L401 560Z"/>
<path fill="#355b92" d="M463 484L531 500L468 560Z"/>
<path fill="#3d61a6" d="M531 500L530 560L468 560Z"/>
<path fill="#345386" d="M531 500L616 502L613 560Z"/>
<path fill="#365f8f" d="M531 500L613 560L530 560Z"/>
<path fill="#304782" d="M616 502L658 499L613 560Z"/>
<path fill="#204a76" d="M658 499L656 560L613 560Z"/>
<path fill="#29326c" d="M658 499L744 510L718 560Z"/>
<path fill="#1f3665" d="M658 499L718 560L656 560Z"/>
<path fill="#18265e" d="M744 510L795 509L718 560Z"/>
<path fill="#202047" d="M795 509L807 560L718 560Z"/>
<path fill="#132434" d="M795 509L874 513L880 560Z"/>
<path fill="#1b1e34" d="M795 509L880 560L807 560Z"/>
<path fill="#182236" d="M874 513L949 494L880 560Z"/>
<path fill="#0f162f" d="M949 494L921 560L880 560Z"/>
<path fill="#201e46" d="M949 494L983 494L1008 560Z"/>
<path fill="#111d3a" d="M949 494L1008 560L921 560Z"/>
<path fill="#16274b" d="M983 494L1075 513L1008 560Z"/>
<path fill="#141d2b" d="M1075 513L1077 560L1008 560Z"/>
<path fill="#282e59" d="M1075 513L1150 491L1135 560Z"/>
<path fill="#201d3a" d="M1075 513L1135 560L1077 560Z"/>
<path fill="#243772" d="M1150 491L1215 508L1135 560Z"/>
<path fill="#1b3363" d="M1215 508L1207 560L1135 560Z"/>
<path fill="#27488a" d="M1215 508L1262 496L1277 560Z"/>
<path fill="#2d4177" d="M1215 508L1277 560L1207 560Z"/>
<path fill="#355691" d="M1262 496L1328 491L1277 560Z"/>
<path fill="#3b5d93" d="M1328 491L1328 560L1277 560Z"/>
<path fill="#3b679d" d="M1328 491L1396 512L1386 560Z"/>
<path fill="#446999" d="M1328 491L1386 560L1328 560Z"/>
<path fill="#43619c" d="M1396 512L1462 512L1386 560Z"/>
<path fill="#4571ac" d="M1462 512L1473 560L1386 560Z"/>
<path fill="#3c5f95" d="M1462 512L1545 510L1542 560Z"/>
<path fill="#436faa" d="M1462 512L1542 560L1473 560Z"/>
<path fill="#223d72" d="M1545 510L1600 481L1542 560Z"/>
<path fill="#2f4883" d="M1600 481L1600 560L1542 560Z"/>
</svg>