<?xml version="1.0" encoding="UTF-8"?>
<svg id="_图层_1" data-name="图层 1" xmlns="http://www.w3.org/2000/svg" xmlns:xlink="http://www.w3.org/1999/xlink" viewBox="0 0 1000 1000">
  <defs>
    <style>
      .cls-1 {
        fill: url(#_未命名的渐变_105);
        stroke-width: 0px;
      }
    </style>
    <linearGradient id="_未命名的渐变_105" data-name="未命名的渐变 105" x1="0" y1="500" x2="1000" y2="500" gradientUnits="userSpaceOnUse">
      <stop offset="0" stop-color="#ee6889"/>
      <stop offset=".46" stop-color="#ee707a" stop-opacity=".65"/>
      <stop offset="1" stop-color="#ee7c68" stop-opacity=".2"/>
    </linearGradient>
  </defs>
  <path class="cls-1" d="M378.1,129.47v-12.63h115.7v682.11c15.5-3.16,18.6-4.21,37.19-7.37V5.26h125v275.79h57.85V5.26h136.36v253.68c9.3-8.42,46.49-41.05,89.88-93.68l59.92,162.11c-43.39,45.26-83.68,78.95-149.79,125.26v362.11c0,23.16,1.03,26.32,20.66,26.32,20.66,0,21.69-32.63,25.83-194.74l98.14,37.89c0,24.21-3.1,172.63-20.66,241.05-11.36,43.16-35.12,69.47-91.94,69.47h-92.98c-69.21,0-75.41-31.58-75.41-95.79-95.04,29.47-314.05,76.84-375,86.32l-26.86-133.68-32.02,6.32c0-67.37-5.17-163.16-11.36-229.47l72.31-12.63c13.43,76.84,18.6,172.63,20.66,206.32,3.1-1.05,14.46-2.11,16.53-3.16v-248.42l-82.64,29.47c-2.07-20-3.1-23.16-5.17-42.11-4.13,1.05-32.02,5.26-42.36,6.32v435.79h-113.64v-421.05c-13.43,1.05-106.4,11.58-113.64,12.63l-11.36-141.05h49.59c16.53-24.21,25.83-37.89,53.72-84.21-16.53-20-71.28-78.95-112.6-111.58L53.72,118.95c13.43,12.63,16.53,15.79,22.73,22.11,6.2-13.68,35.12-78.95,52.69-141.05l123.97,26.32c-20.66,46.32-45.45,100-100.21,193.68l26.86,30.53c63.02-116.84,69.21-129.47,81.61-155.79l116.74,34.74ZM112.6,630.53c-3.1,137.89-8.26,231.58-28.93,324.21L0,886.32c19.63-81.05,24.79-165.26,28.93-262.11l83.68,6.32ZM334.71,341.05c8.26,31.58,24.79,87.37,43.39,192.63V133.68c-50.62,91.58-125,216.84-194.21,311.58,13.43-1.05,72.31-4.21,84.71-4.21-7.23-32.63-11.36-47.37-18.6-70.53l84.71-29.47ZM655.99,432.63v332.63c4.13-1.05,57.85-13.68,57.85-13.68v-318.95h-57.85Z"/>
</svg>